<svg xmlns="http://www.w3.org/2000/svg" width="610" height="40.073" viewBox="0 0 610 40.073">
  <g id="Group_28" data-name="Group 28" transform="translate(-239.036 -73.296)">
    <path id="Path_10" data-name="Path 10" d="M-651.6,553.661a4.55,4.55,0,0,1,.269-1.582c1.53-2.761,3.173-5.459,4.714-8.214,2.157-3.857,4.241-7.754,6.389-11.616,1.533-2.756,3.118-5.484,4.687-8.22,1.255-2.187,2.509-4.376,3.788-6.55.637-1.083,1.331-2.131,2.061-3.294h2.163c7.591,0,15.182.011,22.774-.01a5.359,5.359,0,0,1,3.6.932,6.17,6.17,0,0,0,1.982.71,3.939,3.939,0,0,1,3.132,3.776,13.031,13.031,0,0,1-1.155,6.534,20.7,20.7,0,0,1-5.107,6.868,21.636,21.636,0,0,1-3.5,2.348c-2.054,1.158-2.572,1.909-2.184,4.235.5,2.977-.679,5.552-1.816,8.122a45.531,45.531,0,0,1-2.513,4.619,3.118,3.118,0,0,1-3.023,1.851c-3.4-.125-6.81-.035-10.215-.043-.484,0-.968-.062-1.576-.1a4.45,4.45,0,0,1,.03-1.683c1.065-2.205,2.222-4.365,3.363-6.533.652-1.241,1.434-2.425,1.978-3.71,1-2.351.007-3.9-2.5-4.071-.706-.047-1.417-.006-2.127.005a3.37,3.37,0,0,0-3.139,1.8c-1.408,2.511-2.873,4.991-4.317,7.482-1.053,1.82-2.028,3.693-3.2,5.429a3.027,3.027,0,0,1-2.023,1.285c-4.035.084-8.074-.018-12.113-.062C-651.238,553.962-651.295,553.884-651.6,553.661Zm36.191-30.4v.02a22.575,22.575,0,0,0-3.381.045,3.022,3.022,0,0,0-1.938,1.023c-1.515,2.344-2.961,4.745-4.239,7.225-.9,1.739-.114,2.819,1.891,2.878,1.764.053,3.532-.014,5.3.022a3.645,3.645,0,0,0,3.5-2.251c1.14-2.161,2.3-4.31,3.509-6.435.86-1.514.511-2.343-1.252-2.507C-613.14,523.174-614.278,523.259-615.408,523.259Z" transform="translate(982.348 -440.811)" fill="#ffa224"/>
    <path id="Path_11" data-name="Path 11" d="M-670.143,514.314a7.381,7.381,0,0,1-.311,2.121c-1.519,2.841-3.124,5.636-4.693,8.451-1.265,2.268-2.515,4.545-3.784,6.81-1.165,2.078-2.35,4.144-3.522,6.218-1,1.772-2.037,3.526-2.983,5.327-.731,1.389-.173,2.644,1.428,2.8,4.722.457,6.189.555,8.831-3.929,2.777-4.713,5.479-9.471,8.179-14.229,1.626-2.867,3.185-5.771,4.773-8.66.575-1.046,1.066-2.147,1.738-3.127a3.679,3.679,0,0,1,3.456-1.964c3.113.164,6.241.038,9.363.054.617,0,1.234.094,2.128.166a7.025,7.025,0,0,1-.339,2.122c-2.012,3.691-4.117,7.33-6.164,11-1.775,3.182-3.509,6.388-5.273,9.577-.917,1.658-1.84,3.314-2.8,4.951-1.341,2.3-2.584,4.664-4.113,6.833a8.842,8.842,0,0,1-5.308,3.934.425.425,0,0,0-.2.076c-1.732,1.682-3.918,1.282-6.008,1.285-6.031.008-12.062-.008-18.092.011a4.626,4.626,0,0,1-3.688-1.11c-.752-.736-2.154-.741-2.714-1.872a9.744,9.744,0,0,1-.974-2.24c-.559-2.74.637-5.051,1.958-7.33q2.587-4.463,5.081-8.979c1.7-3.064,3.333-6.163,5.024-9.231,1.221-2.214,2.548-4.371,3.714-6.613a4.151,4.151,0,0,1,4.318-2.632c2.827.169,5.673.034,8.511.046C-671.908,514.186-671.215,514.255-670.143,514.314Z" transform="translate(989.692 -440.803)" fill="#ffa224"/>
    <path id="Path_12" data-name="Path 12" d="M-489.035,514.507a7.252,7.252,0,0,1-.031,2.077c-.635,2-1.42,3.944-2.117,5.922-.606,1.719-1.2,3.443-1.746,5.183-.645,2.071-1.2,4.171-1.842,6.244-.413,1.336-.894,2.652-1.369,3.968-.759,2.1-1.563,4.19-2.3,6.3a44.088,44.088,0,0,0-1.787,5.607,9.451,9.451,0,0,1-2.037,4.2h-12.713a3.031,3.031,0,0,1-.2-3.029c.679-1.978,1.408-3.941,2.153-6.011-.5-.338-.867-.8-1.274-.834a26.487,26.487,0,0,0-5.281-.145,4.346,4.346,0,0,0-2.324,1.671c-2.243,2.7-4.376,5.5-6.611,8.334h-13.9c.921-2.426,2.567-4.183,4-6.051,4.75-6.2,9.553-12.363,14.357-18.524,2.51-3.219,5.059-6.408,7.6-9.605,1.265-1.6,2.578-3.155,3.8-4.784a1.794,1.794,0,0,1,1.579-.844q10.535.028,21.072.038A5.324,5.324,0,0,1-489.035,514.507ZM-509.569,530.1c-1.242,1.443-2.439,2.794-3.588,4.183-.893,1.078-1.78,2.169-2.574,3.32-.712,1.03-.59,1.961.161,2.412a3.385,3.385,0,0,0,4.45-1.37c.838-2.064,1.6-4.16,2.351-6.258A1.749,1.749,0,0,0-509.569,530.1Z" transform="translate(966.23 -440.812)" fill="#ffa224"/>
    <path id="Path_13" data-name="Path 13" d="M-562.646,514.217c.208.87.366,1.545.529,2.217q.424,1.739.856,3.476c.069.273.2.534.243.811q.844,5.295,1.666,10.593c.15.976.179,1.973.372,2.939a4.612,4.612,0,0,0,.7,1.741c.809,1.134,1.785,1.038,2.474-.188,1.51-2.689,2.977-5.4,4.507-8.082,2.364-4.137,4.792-8.24,7.133-12.391a2.006,2.006,0,0,1,2.035-1.16c1.891.051,3.784.026,5.984.032a7.889,7.889,0,0,1-.362,2.276c-1.919,3.509-3.931,6.968-5.891,10.456-2.3,4.1-4.557,8.219-6.875,12.307-2.11,3.722-4.262,7.421-6.427,11.112a29.026,29.026,0,0,1-2.1,3.121,1.81,1.81,0,0,1-1.254.588c-3.536.046-7.073.025-10.663.025a19.441,19.441,0,0,1-1.75-6.177,31.232,31.232,0,0,0-1.17-8.145,21.043,21.043,0,0,1-.431-3.981c-.139-1.26-.248-2.529-.5-3.767a3.979,3.979,0,0,0-.847-1.674,1.13,1.13,0,0,0-2.047.232c-1.591,2.886-3.109,5.812-4.728,8.682-2.1,3.725-4.264,7.416-6.419,11.11a31.8,31.8,0,0,1-1.919,2.981,1.814,1.814,0,0,1-1.2.7c-2.467.065-4.937.032-7.527.032.232-2.4,1.639-4.054,2.592-5.875,1.722-3.292,3.6-6.5,5.449-9.728,1.671-2.922,3.406-5.807,5.065-8.736s3.245-5.9,4.891-8.841c1.061-1.894,2.127-3.79,3.293-5.621a2.257,2.257,0,0,1,1.5-1.017C-571.229,514.181-566.988,514.217-562.646,514.217Z" transform="translate(974.473 -440.81)" fill="#ffa224"/>
    <path id="Path_14" data-name="Path 14" d="M-415.425,514.4c3.32-.469,32.295-.3,34.031.257-.3.963-.568,1.95-.917,2.91-.14.386-.569.681-.667,1.068-.545,2.159-2.072,2.572-4.053,2.545-4.9-.066-9.795.036-14.69-.044a4.654,4.654,0,0,0-4.826,2.99c-1.02,2.219-2.36,4.293-3.529,6.375.8,1.287,1.893,1.244,2.946,1.245q7.347.015,14.692.008h2.875c-1.008,2.051-1.8,3.754-2.677,5.406a2.415,2.415,0,0,1-2.41,1.037q-3.406,0-6.813.006c-3.335,0-6.677.121-10-.043a4.126,4.126,0,0,0-4.322,2.326c-1,1.914-2.451,3.629-2.64,6.013.659.975,1.743.944,2.8.946,5.039.008,10.078,0,15.117.015.812,0,1.624.115,2.86.209l-3.5,6.284h-34.632a6.745,6.745,0,0,1,.218-2.091c.9-1.9,1.926-3.739,2.929-5.588,1.706-3.144,3.435-6.276,5.143-9.419,1.34-2.465,2.679-4.93,3.988-7.411,1.176-2.23,2.278-4.5,3.474-6.719C-418.5,519.889-416.915,517.087-415.425,514.4Z" transform="translate(950.489 -440.803)" fill="#ffa224"/>
    <path id="Path_15" data-name="Path 15" d="M-452.183,526.544c.511-1.129.8-1.736,1.062-2.355a2.32,2.32,0,0,0-1.159-3.36,5.3,5.3,0,0,0-7.609,2.407c-.621,1.406-1.169,2.846-1.849,4.222-1.7,3.449-3.491,6.859-5.2,10.307-.961,1.944-1.839,3.93-2.738,5.9a2.579,2.579,0,0,0,2.179,3.859,17.817,17.817,0,0,0,3.184-.015c1.725-.114,2.42-1.56,3.32-2.7.253-.321.291-.8.519-1.152.836-1.277,1.783-2.225,3.571-2.145,3.044.136,6.1.026,9.148.045.619,0,1.237.126,2.091.22a6.332,6.332,0,0,1-.335,1.717c-1.277,2.343-2.586,4.67-3.958,6.959a8.319,8.319,0,0,1-2.613,2.33c-2.185,1.535-4.536,1.3-6.909,1.3-6.6.009-13.193-.069-19.787.032-3.237.049-6.836-3.9-5.921-7.167a23.2,23.2,0,0,1,1.469-3.708c1.118-2.341,2.338-4.635,3.48-6.966,1.233-2.516,2.381-5.075,3.649-7.573,1.77-3.486,3.56-6.965,5.459-10.382a5.467,5.467,0,0,1,3.434-2.641.863.863,0,0,0,.393-.153c1.68-1.787,3.879-1.39,5.97-1.4,5.816-.015,11.632,0,17.447-.008a3.865,3.865,0,0,1,3.1.983,15.725,15.725,0,0,0,2.68,1.578,4.374,4.374,0,0,1,1.707,3.916,14.649,14.649,0,0,1-.816,4.537,2.363,2.363,0,0,1-1.7,1.348C-443.14,526.6-447.375,526.544-452.183,526.544Z" transform="translate(957.803 -440.798)" fill="#ffa224"/>
    <path id="Path_16" data-name="Path 16" d="M-745.653,553.968h-13.492a4.32,4.32,0,0,1,.63-2.917c1.847-3.306,3.633-6.647,5.511-9.935,1.668-2.92,3.472-5.763,5.135-8.686s3.208-5.921,4.846-8.864c1.43-2.571,2.889-5.128,4.4-7.654a3.339,3.339,0,0,1,3.132-1.758c11.064.054,22.128.028,33.192.037.483,0,.967.093,1.683.166a5.026,5.026,0,0,1-.037,1.816,32.976,32.976,0,0,1-1.811,3.32,3.439,3.439,0,0,1-3.377,1.694c-5.6-.066-11.213.144-16.805-.091-3.046-.128-5.1.844-6.232,3.577-.718,1.738-2.3,3.1-2.262,5.159.005.277,0,.554,0,.821.743.973,1.8.768,2.758.772,5.106.022,10.212,0,15.319.02.825,0,1.649.113,2.427.17.4,1.393-.551,2.126-.877,3.073-.713,2.069-2.193,2.242-4.018,2.222-5.39-.056-10.791.193-16.165-.1-3.282-.178-4.947,1.386-6.289,3.914-1.15,2.167-2.347,4.307-3.549,6.446-.651,1.16-1.346,2.3-2.036,3.434S-744.965,552.854-745.653,553.968Z" transform="translate(998.231 -440.807)" fill="#ffa224"/>
    <path id="Path_17" data-name="Path 17" d="M-351.255,530.851c-.243-1.028,0-1.706,1-1.823,1.5-.176,1.8-1.145,1.777-2.4-.008-.423,0-.846.029-1.269.046-.782.326-1.383,1.24-1.409a1.459,1.459,0,0,1,1.561,1.158,25.8,25.8,0,0,0,2.727,4.706c.194.194.4.374.777.724.294-.6.564-1.063.749-1.556.4-1.053.709-2.137,1.128-3.181.7-1.742.833-1.777,2.944-1.14l.71,2.367.54-.028a8.8,8.8,0,0,0,.335-1.5c.048-.913.425-1.48,1.369-1.564a1.525,1.525,0,0,1,1.742,1.193c.73,2.182.927,2.3,3.271,2.458a3.605,3.605,0,0,1,1.458.158,1.949,1.949,0,0,1,.92,1.2c.044.306-.469.877-.848,1.015a11.7,11.7,0,0,1-1.885.211,5.364,5.364,0,0,0-1.79.526,1.771,1.771,0,0,0-.787,2.028,1.585,1.585,0,0,0,1.47,1.323c1.054.113,2.122.085,3.182.142,1.759.093,1.889.284,1.575,2.487-.764.066-1.589.1-2.4.222-.733.114-1.449.335-2.239.524.464,1.833,1.755,2.784,2.755,3.928.555.636,1.265,1.141,1.79,1.8a2.549,2.549,0,0,1,.611,1.5,1.872,1.872,0,0,1-.718,1.4,1.764,1.764,0,0,1-1.54-.125,9.621,9.621,0,0,1-1.816-1.762,3.017,3.017,0,0,0-2.456-1.339,5.813,5.813,0,0,0-.443,1.256c-.088.7-.043,1.408-.066,2.113-.069,2.127-.359,2.341-2.672,1.919-1.061-1.6.4-3.783-1.132-5.433-2.341.788-3.2,3.67-5.747,4.055-1.013-1.592-.989-1.851.14-3.14q2.16-2.466,4.285-4.963a4.955,4.955,0,0,0,.491-.909c-.933-1.081-2.149-.7-3.225-.868-1.152-.178-2.286-.376-2.935.953-.03.061-.09.138-.147.148-2.3.391-2.029,2.137-2.018,3.76.011,1.693.025,3.387-.033,5.078a1.871,1.871,0,0,1-.471,1.319,1.923,1.923,0,0,1-1.553.29,1.708,1.708,0,0,1-.821-1.251c-.121-1.259-.04-2.537-.081-3.8a3.021,3.021,0,0,0-.938-2.6c-.26.274-.494.5-.7.746s-.413.54-.735.967l-1.122-1.6c.908-2.02,1.77-3.935,2.63-5.852a8.034,8.034,0,0,0,.412-.973c.522-1.751.178-2.341-1.617-2.86A5.174,5.174,0,0,1-351.255,530.851Zm10.314,3.226c1.374,0,2.562.046,3.744-.014a1.35,1.35,0,0,0,1.409-1.513,3.35,3.35,0,0,0-.809-2c-.623-.586-1.464-.3-2.063.335-.667.7-1.311,1.433-2.066,2.262-.761-.452-1.492-.845-2.178-1.3-.612-.412-1.306-.5-1.7.056a2.129,2.129,0,0,0-.226,1.708,3.078,3.078,0,0,0,2.6,1.894Z" transform="translate(938.121 -442.251)" fill="#4f4e4e"/>
    <path id="Path_18" data-name="Path 18" d="M-57.093,529.112a24.146,24.146,0,0,0-2.711-.368c-2.692-.044-5.385,0-8.077-.039a6.961,6.961,0,0,1-2.278-.366,1.415,1.415,0,0,1-.7-1.123,1.463,1.463,0,0,1,.768-1.068,5,5,0,0,1,1.869-.274c4.464-.02,8.928-.012,13.393-.01a6.865,6.865,0,0,1,.849.024c1.334.164,1.869.684,1.489,1.966a41.53,41.53,0,0,1-2.1,5.267,19.108,19.108,0,0,1-1.567,2.5c-.923,1.4-.875,1.987.318,3.04,2.162,1.912,4.31,3.841,6.512,5.707.736.623,1.519,1.216,1.182,2.254A2.3,2.3,0,0,1-50.4,548.29q-3.179-2.914-6.364-5.84c-.207-.19-.367-.431-.577-.619-1.9-1.7-2.583-1.7-4.506.026a46.561,46.561,0,0,1-9.778,6.628,3.839,3.839,0,0,1-.8.172l-1.636-1.816c1.268-1.809,3.232-2.427,4.829-3.525,4.6-3.159,8.6-6.86,11.256-11.834A20.478,20.478,0,0,0-57.093,529.112Z" transform="translate(897.091 -442.535)" fill="#4f4e4e"/>
    <path id="Path_19" data-name="Path 19" d="M-107.381,540.312a14.987,14.987,0,0,1,2.138-1.416c2.12-.961,4.334-1.721,6.424-2.738,2.024-.985,3.943-2.184,5.9-3.3a2.8,2.8,0,0,0,1.327-2.5c-.906-.073-1.724-.191-2.544-.2-3.05-.026-6.1.021-9.149-.03-1.932-.031-2.2-.485-1.7-2.686a12.657,12.657,0,0,1,1.567-.225c1.346-.035,2.694-.009,4.042-.016,2.273-.014,2.3-.008,2.951-2.221.321-1.1,1.146-1.1,2.013-1.1.823,0,1.548.124,1.793,1.11.163.656.257,1.557.711,1.857a4.823,4.823,0,0,0,2.248.347c.99.056,1.99-.026,2.976.062a1.668,1.668,0,0,1,1.478,2.547,3.8,3.8,0,0,1-.866,1.18c-1.711,1.568-3.412,3.151-5.2,4.625a3.544,3.544,0,0,0-1.291,2.976c-.006,2.61.013,5.22-.015,7.83-.02,1.912-1.323,2.785-3.065,1.986a1.788,1.788,0,0,1-.77-1.319c-.1-1.617-.038-3.242-.058-4.865-.033-2.762-.673-3.127-3.173-1.959-1.532.715-3.116,1.322-4.689,1.949C-106.176,542.943-106.664,542.665-107.381,540.312Z" transform="translate(902.009 -442.244)" fill="#4f4e4e"/>
    <path id="Path_20" data-name="Path 20" d="M-294.616,544.063a11.265,11.265,0,0,0,.745-1.595,7.025,7.025,0,0,0,.128-1.47c.062-.821.488-1.367,1.327-1.349s1.227.635,1.28,1.417a12.879,12.879,0,0,1,0,1.9c-.073.912-.185,1.823-.328,2.728a2.732,2.732,0,0,1-4.463,1.907,12.644,12.644,0,0,1-3.845-4.45,16.646,16.646,0,0,1-1.945-6.849,22.2,22.2,0,0,0-.888-4.305,2.022,2.022,0,0,0-1.2-1,5.145,5.145,0,0,0-1.684-.1c-3.049-.007-6.1,0-9.146-.01-.759,0-1.517-.078-2.215-.116-.535-2.1-.364-2.444,1.364-2.476,2.906-.055,5.813-.02,8.72-.024.638,0,1.278.02,1.914-.019,1.525-.093,1.836-.384,2.026-1.874.148-1.17.271-2.343.442-3.829a6.2,6.2,0,0,1,2.1.536c.686.532,1.5,1.146,1.279,2.261a3.488,3.488,0,0,0-.07.841c.089,1.883.961,2.313,2.855,1.311l-1.024-2.684c1.162-1.243,1.834-1.4,2.8-.448a12.652,12.652,0,0,1,1.573,2.2c.416.641.8,1.308,1.153,1.984.69,1.308.2,2.24-1.267,2.318-1.414.075-2.834.032-4.253.05-.9.011-1.545.395-1.575,1.349-.136,4.26.655,8.251,3.548,11.6C-295.226,543.908-295.134,543.907-294.616,544.063Z" transform="translate(932.971 -442.047)" fill="#4f4e4e"/>
    <path id="Path_21" data-name="Path 21" d="M-257.581,539.627v2.388l-4.963.567c.473,1.943,1.841,3.042,2.7,4.438.257.418.638.762.884,1.185.407.7.7,1.518-.089,2.09a1.736,1.736,0,0,1-2.342.141c-1.168-1.146-2.555-1.1-3.976-.942-3.012.336-6.015.769-9.031,1.067-1.829.182-3.676.234-5.515.238a2.063,2.063,0,0,1-1.448-.63,1.241,1.241,0,0,1,.942-2c2.647-.1,3.208-2.274,4.172-3.98.573-1.014.028-1.758-1.176-1.87-.984-.092-1.983-.037-2.973-.073-.867-.032-1.556-.332-1.556-1.339,0-1.054.764-1.227,1.6-1.259.5-.018.992-.015,1.488-.015h21.28Zm-7.982,6.4c-.366-1.185-.687-2.229-1.06-3.433-1.637-.279-3.572-1.057-4.846.5-.909,1.113-2.6,2.465-1.227,4.376C-268.661,547.446-266.872,547.089-265.562,546.03Z" transform="translate(927.78 -444.568)" fill="#4f4e4e"/>
    <path id="Path_22" data-name="Path 22" d="M-189.4,525.868c2.981,0,5.962-.03,8.942.013,1.545.022,1.868.3,1.868,1.666,0,5.059-1.181,9.785-4.375,13.833a17.743,17.743,0,0,1-6.055,4.535c-2.441,1.265-5.144,1.528-7.671,2.422a3.44,3.44,0,0,1-.833.168,1.891,1.891,0,0,1-2.28-1.407c-.163-.864.34-1.521,1.6-1.9.742-.223,1.539-.263,2.294-.449,4.518-1.12,8.622-2.965,11.009-7.207a13.468,13.468,0,0,0,2.078-6.787c-.025-1.681-.292-2-1.99-2.013-4.116-.038-8.233-.014-12.349-.021a14.736,14.736,0,0,1-1.913-.071c-.861-.115-1.161-.711-1.113-1.523a1.154,1.154,0,0,1,1.212-1.209c1.773-.048,3.548-.046,5.321-.055,1.419-.008,2.838,0,4.258,0Z" transform="translate(915.711 -442.535)" fill="#4f4e4e"/>
    <path id="Path_23" data-name="Path 23" d="M-256.838,533.429l-1.256,1.618a10.032,10.032,0,0,0-1.589-.636,10.933,10.933,0,0,0-2.467-.321c-4.672.076-9.342.239-14.014.28a8.775,8.775,0,0,1-2.45-.834c-.793.32-1.825.763-2.878,1.152-.618.228-1.25.338-1.653-.419a1.263,1.263,0,0,1,.335-1.7,7.866,7.866,0,0,1,1.183-.891,34.241,34.241,0,0,0,8.482-6.614,4.112,4.112,0,0,1,5.707-.22,30.643,30.643,0,0,0,7.276,5.775,13.517,13.517,0,0,0,1.7.844A2.207,2.207,0,0,1-256.838,533.429Zm-9.3-2.927a40.766,40.766,0,0,0-3.178-2.922,1.839,1.839,0,0,0-1.711,0,10.541,10.541,0,0,0-3.358,3.329c2.083,1.655,4.408.775,6.556.909C-267.037,531.871-266.247,531.653-266.133,530.5Z" transform="translate(927.984 -442.231)" fill="#4f4e4e"/>
    <path id="Path_24" data-name="Path 24" d="M-221.11,544.786c.2,1.945,0,2.291-1.342,2.5a9.809,9.809,0,0,1-1.487.057q-5.426.005-10.852,0a10.486,10.486,0,0,1-1.695-.1,1.219,1.219,0,0,1-1.023-1.389,1.109,1.109,0,0,1,1.112-1.275c1.062-.055,2.128-.023,3.189-.079,2.163-.115,2.551-.52,2.576-2.7.02-1.905.038-3.811-.012-5.715-.043-1.664-.622-2.237-2.308-2.414-.633-.066-1.276-.035-1.911-.087a1.209,1.209,0,0,1-1.138-1.3c-.056-.82.488-1.1,1.2-1.161.424-.034.852-.024,1.275-.056,2.03-.158,2.792-.919,2.885-2.9.03-.634,0-1.27.018-1.905.048-1.691.44-2.292,1.5-2.339,1.1-.049,1.525.537,1.579,2.231.026.776-.017,1.555.035,2.328.118,1.789.687,2.377,2.458,2.557a11.2,11.2,0,0,1,2.11.145,1.712,1.712,0,0,1,1.027,1.074,1.086,1.086,0,0,1-1.058,1.315c-.846.073-1.7.027-2.548.118-1.466.159-1.924.559-1.971,1.983-.075,2.325-.013,4.656-.034,6.984a1.57,1.57,0,0,0,1.682,1.748c.777.057,1.558.056,2.336.117C-222.737,544.585-221.979,544.69-221.11,544.786Z" transform="translate(921.219 -442.25)" fill="#4f4e4e"/>
    <path id="Path_25" data-name="Path 25" d="M-242.44,530.284c-1.452-.2-2.328-.332-3.207-.432a11.208,11.208,0,0,1-2.3-.256,1.683,1.683,0,0,1-.88-1.191c-.041-.3.477-.752.837-1.007a2.214,2.214,0,0,1,1.024-.23,1.773,1.773,0,0,0,1.865-1.861c.038-.9.576-1.515,1.516-1.32.452.094,1.152.624,1.158.967.038,2,1.371,2.206,2.877,2.3a7.415,7.415,0,0,1,1.157.286,8.767,8.767,0,0,1-1.614,4.917c-.206.36-.559.637-.777.993-.788,1.283-.746,1.9.269,3.023.565.627,1.207,1.187,1.823,1.768.817.77.842,1.56-.077,2.6l-3.062-1.055a15.124,15.124,0,0,0-.411,2.2c-.064,1.618-.032,3.239-.032,4.859,0,.889-.292,1.5-1.319,1.531-1.047.029-1.47-.322-1.517-1.534-.06-1.547,0-3.1-.04-4.647-.021-.736-.172-1.47-.306-2.539l-3.366,1.333c-.605-.939-.729-1.633.144-2.461a39.575,39.575,0,0,0,3.883-4.147A34.238,34.238,0,0,0-242.44,530.284Z" transform="translate(922.961 -442.254)" fill="#4f4e4e"/>
    <path id="Path_26" data-name="Path 26" d="M-303.312,536.384a2.628,2.628,0,0,1-2.319,1.914c-1.549.249-1.753.51-1.829,2.049a23.465,23.465,0,0,0,.015,2.958c.111,1.44.606,1.833,2.064,1.735,1.107-.075,2.211-.2,3.264-.294.6,1.99.5,2.381-.78,2.625a65.009,65.009,0,0,1-11.557,1.59c-1.731.015-2.15-.4-2.2-2.451.991-.152,2.013-.355,3.045-.454,2.049-.2,2.421-.516,2.569-2.555a23.078,23.078,0,0,0,.02-2.747c-.089-1.926-.512-2.339-2.4-2.464-.353-.023-.707-.024-1.061-.037a1.243,1.243,0,0,1-1.286-1.377c-.018-.8.569-1.083,1.273-1.107,1.061-.038,2.125-.039,3.187-.041,1.843,0,3.688-.054,5.526.037A13.168,13.168,0,0,1-303.312,536.384Z" transform="translate(932.902 -443.99)" fill="#4f4e4e"/>
    <path id="Path_27" data-name="Path 27" d="M-168.8,531.29c.452-1.449,1.556-1.411,2.622-1.414q6.158-.012,12.314,0c1.415,0,2.835-.038,4.244.061,1.366.1,2.056.881,1.647,2.1a14.988,14.988,0,0,1-6.9,8.445,3.316,3.316,0,0,1-1.03.125l-.713-1.715c1.312-1.347,2.5-2.53,3.637-3.757a3.568,3.568,0,0,0,.744-1.253c.322-.956-.006-1.5-1-1.666a11.916,11.916,0,0,0-1.905-.078c-3.681-.008-7.361.006-11.041-.014C-167.073,532.115-168.039,532.242-168.8,531.29Z" transform="translate(911.075 -443.127)" fill="#4f4e4e"/>
    <path id="Path_28" data-name="Path 28" d="M-127.056,539.809c-3.4,0-6.8.017-10.2-.007-1.7-.011-2.58-.552-2.647-1.516-.07-1,.768-1.579,2.528-1.584,6.872-.021,13.744-.009,20.616-.007a8.291,8.291,0,0,1,.847.05,1.3,1.3,0,0,1,1.24,1.444c0,.854-.338,1.542-1.332,1.578-1.2.043-2.408.042-3.612.044-2.48.006-4.959,0-7.439,0Z" transform="translate(906.811 -444.134)" fill="#4f4e4e"/>
    <path id="Path_29" data-name="Path 29" d="M-157.543,539.456c-.736,3.466-1.9,6.978-5.337,9.166a14.87,14.87,0,0,1-3.233,1.447,1.042,1.042,0,0,1-1.469-.8,1.289,1.289,0,0,1,.689-1.6c.447-.211.909-.4,1.339-.637,3.277-1.837,4.507-4.864,4.879-8.375.081-.769.043-1.552.153-2.315.1-.716.357-1.4,1.274-1.433s1.227.618,1.345,1.349C-157.745,537.229-157.678,538.215-157.543,539.456Z" transform="translate(910.904 -443.871)" fill="#4f4e4e"/>
    <path id="Path_30" data-name="Path 30" d="M-76.989,542.818c-1.554,2.421-1.928,2.484-4.156,1.212-1.341-.766-2.748-1.418-4.131-2.108-1.008-.5-1.406-1.172-1.083-1.954a1.446,1.446,0,0,1,1.936-.8A25.911,25.911,0,0,1-76.989,542.818Z" transform="translate(898.923 -444.487)" fill="#4f4e4e"/>
  </g>
</svg>
